<svg width="46" height="46" viewBox="0 0 46 46" fill="none" xmlns="http://www.w3.org/2000/svg">
<path id="1 sparkle" d="M26.5522 43.84L27.5035 34.5155L27.5061 34.5119C27.7522 32.1032 28.608 29.797 29.9927 27.8109C31.3773 25.8247 33.2452 24.2242 35.4201 23.1602L43.84 19.0426L34.5119 18.0887C32.1033 17.8425 29.7971 16.9868 27.811 15.6021C25.8248 14.2174 24.2242 12.3495 23.1602 10.1747L19.0426 1.75473L18.0887 11.0828C17.8426 13.4915 16.9868 15.7977 15.6022 17.7838C14.2175 19.77 12.3496 21.3706 10.1747 22.4346L1.75479 26.5521L11.0829 27.506C13.4915 27.7522 15.7977 28.6079 17.7839 29.9926C19.77 31.3773 21.3706 33.2452 22.4346 35.42L26.5522 43.84Z" stroke="#F4F0EE" stroke-width="3" stroke-linecap="round" stroke-linejoin="round"/>
</svg>
