<svg width="49" height="81" viewBox="0 0 49 81" fill="none" xmlns="http://www.w3.org/2000/svg">
<g id="2 sparkles">
<path d="M28.4554 31.7477L30.4157 27.8158C31.5391 25.5608 33.2543 23.6536 35.3779 22.2981C37.5015 20.9426 39.9535 20.1898 42.4719 20.1203L46.8637 19.9977L42.9318 18.0374C40.6768 16.914 38.7696 15.1988 37.4141 13.0752C36.0586 10.9516 35.3058 8.49951 35.2363 5.98116L35.1137 1.58938L33.1533 5.52129C32.0304 7.77585 30.3159 9.68286 28.1931 11.0385C26.0702 12.3941 23.6189 13.1473 21.1012 13.2177L16.7054 13.3394L20.6413 15.3006C22.8954 16.4245 24.8017 18.1398 26.1565 20.2631C27.5112 22.3865 28.2634 24.8381 28.3328 27.3559L28.4554 31.7477Z" stroke="#F4F0EE" stroke-width="3" stroke-linecap="round" stroke-linejoin="round"/>
<path d="M11.7705 78.6693L14.4051 74.2621C15.1434 73.0277 16.159 71.9821 17.3715 71.2082C18.5839 70.4343 19.9599 69.9534 21.3904 69.8034L26.4971 69.2693L22.0899 66.6347C20.8555 65.8964 19.81 64.8808 19.0361 63.6683C18.2622 62.4559 17.7812 61.0799 17.6312 59.6494L17.0971 54.5427L14.4626 58.9499C13.7242 60.1843 12.7086 61.2298 11.4962 62.0037C10.2837 62.7776 8.90778 63.2586 7.47725 63.4086L2.3705 63.9427L6.77769 66.5772C8.0121 67.3156 9.05765 68.3312 9.83155 69.5436C10.6054 70.756 11.0864 72.132 11.2364 73.5625L11.7705 78.6693Z" stroke="#F4F0EE" stroke-width="3" stroke-linecap="round" stroke-linejoin="round"/>
</g>
</svg>
