<svg width="137" height="131" viewBox="0 0 137 131" fill="none" xmlns="http://www.w3.org/2000/svg">
<path id="Large Sparkle" d="M48.3029 85.6675L40.7089 103.715L37.6237 84.3795C36.826 79.3848 34.7687 74.6757 31.6462 70.6966C28.5236 66.7176 24.4387 63.5997 19.7769 61.6373L1.72324 54.0359L21.0592 50.9507C26.0539 50.153 30.7629 48.0958 34.742 44.9732C38.7211 41.8507 41.8389 37.7658 43.8013 33.104L51.4027 15.0503L54.4879 34.3862C55.2857 39.3809 57.3429 44.09 60.4654 48.069C63.588 52.0481 67.6729 55.1659 72.3347 57.1283L90.3884 64.7297L71.0525 67.8149C66.0578 68.6127 61.3487 70.6699 57.3696 73.7924C53.3905 76.915 50.2727 80.9999 48.3103 85.6617L48.3029 85.6675ZM109.469 45.142L106.948 51.7345L106.067 44.7317C105.563 40.7168 103.978 36.9143 101.481 33.7307C98.9835 30.547 95.6679 28.1018 91.8886 26.6565L85.2895 24.1348L92.2989 23.2544C96.3135 22.7491 100.115 21.1624 103.298 18.6637C106.481 16.1651 108.925 12.8486 110.368 9.06859L112.889 2.47609L113.77 9.47891C114.274 13.4946 115.861 17.2978 118.359 20.4817C120.858 23.6656 124.175 26.1105 127.955 27.5549L134.548 30.0758L127.545 30.957C123.529 31.4611 119.726 33.0472 116.542 35.5457C113.358 38.0443 110.914 41.3613 109.469 45.142ZM91.1157 121.902L87.5909 129.36L85.9403 121.278C85.4773 119.014 84.4936 116.889 83.0671 115.071C81.6406 113.253 79.8104 111.793 77.7216 110.805L70.264 107.28L78.3457 105.629C80.6096 105.166 82.7346 104.183 84.5524 102.756C86.3702 101.33 87.831 99.4995 88.8189 97.4106L92.3437 89.953L93.9943 98.0348C94.4573 100.299 95.441 102.424 96.8675 104.241C98.2941 106.059 100.124 107.52 102.213 108.508L109.671 112.033L101.589 113.683C99.325 114.146 97.2 115.13 95.3822 116.557C93.5644 117.983 92.1037 119.813 91.1157 121.902Z" stroke="#F4F0EE" stroke-width="3" stroke-linecap="round" stroke-linejoin="round"/>
</svg>
