<svg width="45" height="45" viewBox="0 0 45 45" fill="none" xmlns="http://www.w3.org/2000/svg">
<path d="M16.4313 2.28126L21.5405 10.1391L21.5445 10.1412C22.8646 12.1709 24.6801 13.8307 26.8196 14.964C28.9592 16.0973 31.3522 16.6668 33.7729 16.6188L43.1438 16.4312L35.2839 21.5444C33.2543 22.8645 31.5945 24.68 30.4611 26.8195C29.3278 28.9591 28.7583 31.3521 28.8063 33.7728L28.9939 43.1438L23.8807 35.2838C22.5606 33.2542 20.7451 31.5944 18.6056 30.461C16.466 29.3277 14.073 28.7582 11.6523 28.8063L2.28134 28.9938L10.1413 23.8806C12.1709 22.5605 13.8307 20.745 14.9641 18.6055C16.0974 16.4659 16.6669 14.0729 16.6189 11.6522L16.4313 2.28126Z" fill="#F4F0EE" stroke="#F4F0EE" stroke-width="3" stroke-linecap="round" stroke-linejoin="round"/>
</svg>
