<svg width="13" height="13" viewBox="0 0 13 13" fill="none" xmlns="http://www.w3.org/2000/svg">
<path id="Vector" d="M7.16244 9.68104L6.5 12L5.83756 9.68104C5.66634 9.08203 5.34533 8.53653 4.9048 8.09601C4.46428 7.65549 3.91878 7.33447 3.31978 7.16326L1 6.5L3.31896 5.83756C3.91797 5.66634 4.46347 5.34533 4.90399 4.9048C5.34451 4.46428 5.66553 3.91878 5.83674 3.31978L6.5 1L7.16244 3.31896C7.33366 3.91797 7.65467 4.46347 8.0952 4.90399C8.53572 5.34451 9.08122 5.66553 9.68022 5.83674L12 6.5L9.68104 7.16244C9.08203 7.33366 8.53653 7.65467 8.09601 8.0952C7.65549 8.53572 7.33447 9.08122 7.16326 9.68022L7.16244 9.68104Z" fill="#F4F0EE" stroke="#F4F0EE" stroke-width="1.5" stroke-linecap="round" stroke-linejoin="round"/>
</svg>
