<svg width="125" height="105" viewBox="0 0 125 105" fill="none" xmlns="http://www.w3.org/2000/svg">
<path d="M26.1 24.6V81.4C26.1 84.7 28.7 88 32.2 88H2.5C5.8 88 8.5 84.7 8.5 81.4V24.6C8.5 21.3 5.8 18 2.5 18H8.5H11.4H20.4H26.1H32.2C28.7 18 26.1 21.3 26.1 24.6ZM51.8 26.3C51.8 22.3 48.7 18.5 45 18H71.2C63.9 18.8 55.7 24.8 49.9 31.2C51 29.7 51.8 28.2 51.8 26.3ZM26.1 53V52.9C26.2 53 26.3 53 26.4 53H26.1ZM40 42.2C53.3 46.2 58.3 88 71.2 88H48.9C42 88 35.7 55.8 26.4 53C29.6 52.7 35.2 47.3 40 42.2Z" fill="#9DA5EB"/>
<path d="M115.6 68.7C116.4 79.3 104.5 87.7 90.4 88C95.2 87.5 99.6 83 99.6 77.9C99.6 62.8 63.5 53.1 63.5 34.3C63.5 22.3 78.1 18 88.9 18H90.4C85.7 18.4 81.6 21.5 81.2 27.1C80 42.7 114 50 115.6 68.7ZM111.1 18V36.9C109.5 29 102.6 19.3 93 18.2C97.3 18.6 100.8 19.4 105.1 19.4C107.4 19.4 109.8 19.1 111.1 18ZM79 83.2C79.4 85.5 82.5 87.7 88.1 88C74.6 87.5 63.5 80.2 63.5 70.7C63.5 64.8 68.3 60 74.2 60C80.1 60 84.9 64.8 84.9 70.7C84.9 73.6 83.7 76.4 81.8 78.3C79.7 80.6 78.7 81.3 79 83.2Z" fill="#9DA5EB"/>
<path d="M47.5427 39.681L46.8749 42L46.2071 39.681C46.0345 39.082 45.7109 38.5365 45.2669 38.096C44.8228 37.6555 44.2729 37.3345 43.6691 37.1633L41.3306 36.5L43.6682 35.8376C44.2721 35.6663 44.822 35.3453 45.266 34.9048C45.7101 34.4643 46.0337 33.9188 46.2063 33.3198L46.8749 31L47.5427 33.319C47.7153 33.918 48.0389 34.4635 48.483 34.904C48.9271 35.3445 49.477 35.6655 50.0808 35.8367L52.4193 36.5L50.0816 37.1624C49.4778 37.3337 48.9279 37.6547 48.4838 38.0952C48.0397 38.5357 47.7161 39.0812 47.5435 39.6802L47.5427 39.681Z" fill="#F4F0EE" stroke="#F4F0EE" stroke-width="1.5" stroke-linecap="round" stroke-linejoin="round"/>
</svg>
